# xmcd
#
# Track frame offsets: 
#        150
#        18552
#        33507
#        53570
#        71725
#        88015
#        106315
#        121552
#        139670
#        154077
#        173310
#        186995
#
# Disc length: 2730 seconds
#
# Revision: 3
# Processed by: cddbd v1.5.2PL0 Copyright (c) Steve Scherf et al.
# Submitted via: ExactAudioCopy v0.99pb4
#
DISCID=930aa80c
DTITLE=Powder Blues - Let's Get Loose
DYEAR=1993
DGENRE=Blues
TTITLE0=Let's Get Loose
TTITLE1=Rock 'n Roll Man
TTITLE2=Party All Night Sleep All Day
TTITLE3=My Guitar's My Oldest Friend
TTITLE4=Close To You
TTITLE5=You Don't Know Me
TTITLE6=Blame It On The Blues
TTITLE7=Whole Lotta Lovin
TTITLE8=Disappearing Baby Blues
TTITLE9=The Days Are Few
TTITLE10=Shiftless
TTITLE11=B.B. Be Gone
EXTD=
EXTT0=
EXTT1=
EXTT2=
EXTT3=
EXTT4=
EXTT5=
EXTT6=
EXTT7=
EXTT8=
EXTT9=
EXTT10=
EXTT11=
PLAYORDER=
